<?xml version="1.0" standalone="no"?>
<!DOCTYPE svg PUBLIC "-//W3C//DTD SVG 20010904//EN"
 "http://www.w3.org/TR/2001/REC-SVG-20010904/DTD/svg10.dtd">
<svg version="1.0" xmlns="http://www.w3.org/2000/svg"
 width="580.000000pt" height="580.000000pt" viewBox="0 0 580.000000 580.000000"
 preserveAspectRatio="xMidYMid meet">
<metadata>
Created by potrace 1.14, written by Peter Selinger 2001-2017
</metadata>
<g transform="translate(0.000000,580.000000) scale(0.100000,-0.100000)"
fill="#000000" stroke="none">
<path d="M726 5785 c4 -8 10 -15 14 -15 4 0 11 -12 14 -26 5 -17 12 -24 21
-20 9 3 15 0 15 -7 0 -7 9 -23 20 -35 24 -25 27 -62 5 -62 -8 0 -15 -4 -15
-10 0 -5 -8 -10 -17 -10 -37 0 -132 -72 -133 -100 -1 -11 -4 -10 -16 5 -16 20
-16 19 -9 -4 6 -20 4 -23 -9 -18 -16 6 -18 1 -20 -48 -1 -11 -5 -21 -10 -22
-11 -2 -34 -46 -29 -55 2 -5 19 -8 38 -8 19 0 37 -5 41 -12 4 -7 3 -8 -4 -4
-7 4 -12 2 -12 -3 0 -6 5 -11 11 -11 6 0 9 -6 6 -14 -3 -8 -1 -17 6 -20 7 -2
4 -5 -5 -5 -10 -1 -18 -5 -18 -10 0 -14 25 -20 41 -10 21 13 26 11 34 -13 4
-14 8 -18 12 -10 7 17 33 15 33 -2 0 -8 14 -15 35 -18 24 -3 35 0 35 9 0 15
28 17 48 4 7 -4 12 -14 10 -22 -2 -8 7 -15 22 -17 14 -2 31 -9 39 -15 10 -9
16 -7 26 6 6 9 15 14 19 10 12 -12 55 -9 61 5 9 23 23 4 17 -24 -5 -25 -3 -26
26 -22 18 2 33 0 35 -6 2 -7 10 -6 21 3 15 13 18 12 23 -7 6 -24 32 -29 50
-11 9 9 19 8 39 -6 14 -9 23 -12 19 -6 -4 8 2 10 22 5 15 -3 42 -5 59 -5 17 1
43 -3 58 -9 17 -6 26 -6 26 0 0 6 7 10 15 10 8 0 15 -4 15 -8 0 -4 12 -8 28
-7 39 0 62 34 62 90 0 76 43 138 105 150 59 12 70 12 81 3 7 -5 22 -11 35 -13
28 -6 41 -24 36 -53 -4 -22 23 -48 37 -35 3 3 9 -8 12 -25 6 -32 37 -72 55
-72 6 0 7 -5 4 -11 -12 -19 36 -59 71 -59 36 0 40 8 43 74 2 32 9 45 42 74 26
23 36 38 28 42 -18 12 -3 27 33 34 37 7 95 77 82 98 -4 7 -4 10 0 6 5 -4 19
-3 32 2 17 7 27 5 38 -5 9 -10 17 -11 21 -5 3 5 1 10 -4 10 -6 0 -11 7 -11 15
0 9 -6 12 -17 8 -11 -4 -14 -3 -9 6 4 6 16 9 26 6 27 -9 68 5 73 23 3 11 5 7
6 -8 1 -17 4 -21 9 -12 6 9 21 10 63 2 30 -6 56 -15 57 -20 2 -6 10 -10 18
-10 8 0 11 -6 8 -15 -5 -11 -2 -13 9 -9 9 3 22 2 29 -2 7 -5 22 -10 33 -11 11
-2 25 -10 31 -18 6 -8 16 -15 23 -15 6 0 11 -4 11 -10 0 -5 7 -10 16 -10 8 0
13 -4 10 -9 -3 -5 1 -11 9 -15 18 -6 20 -43 3 -48 -8 -3 -7 -11 5 -28 9 -14
17 -32 17 -40 0 -25 70 -85 134 -115 50 -23 74 -27 163 -30 72 -2 126 3 172
14 36 9 95 15 131 14 161 -6 238 -4 328 7 140 18 241 3 356 -51 25 -11 49 -18
54 -15 6 3 15 -1 22 -10 7 -8 19 -13 27 -10 19 8 63 -11 63 -26 0 -10 -3 -9
-9 1 -10 15 -41 8 -41 -9 0 -5 9 -10 19 -10 11 0 23 -5 27 -11 4 -7 21 -9 40
-6 29 5 34 3 34 -14 0 -10 -9 -24 -20 -31 -26 -16 -25 -24 3 -32 21 -6 21 -7
3 -21 -11 -9 -17 -22 -13 -34 3 -12 -1 -22 -10 -25 -11 -4 -13 -2 -9 9 3 8 1
25 -4 37 -5 13 -9 17 -9 10 -1 -7 -5 -11 -10 -7 -16 9 -34 -34 -21 -50 19 -23
61 -28 77 -8 8 10 11 12 7 4 -6 -11 -3 -13 12 -7 18 8 41 14 57 15 13 2 7 29
-8 35 -8 3 -15 1 -15 -4 0 -6 -4 -10 -10 -10 -5 0 -10 9 -10 21 0 11 5 17 10
14 16 -10 12 11 -5 25 -17 14 -20 40 -5 40 6 0 10 9 10 21 0 11 4 18 9 15 14
-9 41 4 41 19 0 7 7 16 16 19 9 3 14 12 12 18 -3 7 1 19 9 26 23 24 136 63
193 67 30 2 69 8 85 13 54 15 348 1 373 -18 8 -7 29 -5 41 4 10 8 15 8 18 0 4
-13 90 -9 107 5 9 7 16 7 24 -1 8 -8 15 -8 26 1 8 7 20 11 28 10 7 -1 24 -1
38 0 l25 2 -28 20 c-15 11 -24 26 -21 31 4 6 -1 17 -12 25 -15 11 20 13 238 8
141 -2 268 -7 282 -11 l26 -6 0 316 0 316 -2540 0 c-2253 0 -2539 -2 -2534
-15z m3871 -160 c62 -61 51 -195 -17 -212 -14 -3 -30 -10 -36 -15 -6 -4 -18
-6 -27 -2 -8 3 -18 0 -22 -6 -6 -9 -9 -9 -15 0 -4 7 -19 13 -34 13 -14 0 -26
3 -26 8 0 5 -6 9 -13 9 -19 0 -49 63 -49 104 0 45 21 79 70 110 49 31 133 27
169 -9z m-2020 -211 c-3 -3 -12 -4 -19 -1 -8 3 -5 6 6 6 11 1 17 -2 13 -5z
m518 -234 c-2 -3 3 -19 11 -35 10 -19 11 -32 4 -39 -6 -6 -13 1 -21 22 -6 18
-15 32 -21 32 -5 0 -7 4 -4 9 3 5 -6 21 -21 35 -22 23 -25 29 -13 37 11 7 22
1 42 -23 15 -17 25 -34 23 -38z m2129 31 c8 -13 -3 -19 -24 -14 -11 3 -17 9
-14 14 7 11 31 12 38 0z m-3714 -78 c0 -10 -4 -14 -8 -8 -4 6 -11 13 -16 18
-5 4 -2 7 7 7 10 0 17 -8 17 -17z m2685 -143 c3 -5 2 -10 -4 -10 -5 0 -13 5
-16 10 -3 6 -2 10 4 10 5 0 13 -4 16 -10z m65 -4 c0 -3 -4 -8 -10 -11 -5 -3
-10 -1 -10 4 0 6 5 11 10 11 6 0 10 -2 10 -4z m47 -18 c-3 -8 -6 -5 -6 6 -1
11 2 17 5 13 3 -3 4 -12 1 -19z"/>
<path d="M573 5333 c-16 -6 -17 -33 -2 -33 5 0 8 4 5 9 -4 5 0 11 6 14 7 2 11
7 8 9 -3 3 -11 3 -17 1z"/>
<path d="M578 5263 c7 -3 16 -2 19 1 4 3 -2 6 -13 5 -11 0 -14 -3 -6 -6z"/>
<path d="M4118 4763 c7 -3 16 -2 19 1 4 3 -2 6 -13 5 -11 0 -14 -3 -6 -6z"/>
<path d="M2645 4618 c-11 -6 -35 -24 -53 -38 -31 -25 -39 -27 -98 -22 -63 5
-160 -9 -219 -31 -61 -23 -260 -166 -307 -220 -77 -89 -128 -106 -192 -62 -79
54 -94 58 -185 51 -47 -3 -126 -6 -175 -6 -126 0 -99 -13 35 -16 111 -3 178
-10 188 -20 3 -3 -190 -2 -429 1 -394 5 -433 5 -416 -10 11 -8 25 -15 30 -16
71 -5 171 -19 201 -29 40 -12 123 -20 340 -31 227 -12 306 -23 323 -46 10 -13
12 -35 8 -76 -3 -33 -9 -190 -12 -350 -4 -161 -9 -308 -13 -327 -7 -33 -9 -35
-61 -44 -41 -6 -50 -10 -37 -18 23 -12 21 -35 -3 -48 -13 -7 -20 -21 -20 -38
0 -44 11 -52 64 -46 40 4 47 2 44 -12 -5 -27 -35 -41 -58 -27 -26 17 -42 -10
-28 -46 5 -15 9 -27 9 -28 -1 -2 -1 -10 -1 -20 0 -14 2 -14 21 3 30 27 36 7
27 -88 -15 -151 -34 -197 -80 -198 -14 0 -18 8 -18 40 l0 39 -25 -24 c-24 -24
-57 -31 -90 -19 -25 10 -46 72 -51 154 -10 178 -24 224 -93 314 -44 58 -76
120 -97 188 -15 48 -36 68 -73 68 -28 0 -40 -26 -42 -96 -1 -61 -28 -169 -59
-239 -10 -22 -22 -53 -28 -70 -6 -16 -14 -39 -18 -50 -13 -33 -11 -89 4 -100
8 -7 13 -33 14 -70 1 -93 -76 -244 -117 -229 -9 4 -20 1 -25 -6 -5 -8 -16 -2
-36 24 -16 20 -34 36 -40 36 -6 0 -28 29 -48 65 -21 35 -45 70 -53 77 -8 7
-35 44 -60 83 -57 87 -52 82 -62 66 -6 -10 -10 -9 -14 4 -5 13 -11 14 -27 5
-25 -13 -25 -21 -1 -47 11 -11 23 -42 26 -69 4 -27 11 -56 16 -65 9 -17 -6
-39 -27 -39 -7 0 -27 12 -44 26 -17 15 -45 30 -62 33 -24 5 -33 14 -44 46 -7
22 -18 41 -24 43 -5 2 -10 9 -10 15 0 18 -61 55 -104 63 -28 5 -37 4 -32 -5 4
-6 4 -17 -1 -23 -4 -7 -8 -27 -9 -45 0 -17 -13 -56 -28 -87 -23 -47 -33 -57
-64 -66 -20 -5 -47 -10 -59 -10 l-23 0 0 -776 c0 -797 1 -815 37 -744 17 34
73 90 100 101 35 13 73 11 79 -5 4 -10 13 -6 34 15 16 16 39 29 53 29 13 0 44
11 69 24 46 24 111 37 124 23 4 -4 15 -7 25 -7 25 0 40 -55 41 -145 0 -55 4
-75 14 -75 7 0 16 5 19 10 11 18 25 11 25 -12 1 -30 33 38 69 142 22 63 32 79
64 99 36 23 48 53 27 66 -14 8 -13 184 1 224 11 31 49 57 77 52 7 -1 15 5 18
14 4 10 13 14 23 10 12 -5 13 -3 5 5 -9 9 -17 9 -32 1 -30 -16 -32 -14 -32 20
0 68 63 70 95 3 8 -18 24 -36 35 -39 11 -4 20 -15 20 -26 0 -27 2 -32 16 -47
20 -19 28 -15 85 39 30 28 66 57 82 65 15 8 27 19 27 24 0 6 6 10 14 10 19 0
66 57 66 81 0 16 5 18 28 13 15 -4 29 -8 31 -10 1 -1 24 12 51 31 26 18 92 58
148 88 107 58 202 126 267 192 28 28 46 58 59 100 31 102 71 159 151 217 l40
29 -4 134 c-2 90 1 140 9 155 21 40 31 7 40 -143 9 -143 7 -177 -11 -177 -23
0 -69 -119 -69 -181 0 -98 126 -265 277 -365 47 -32 81 -60 75 -62 -6 -2 -22
4 -34 12 -12 9 -36 16 -53 16 -52 0 -166 -37 -282 -90 -24 -11 -51 -20 -60
-20 -10 -1 -29 -7 -43 -15 -14 -8 -35 -14 -48 -15 -36 0 -21 -24 19 -31 19 -3
69 -20 112 -37 84 -34 124 -42 95 -19 -19 15 -32 64 -19 72 6 3 18 -1 28 -9
33 -28 158 -118 186 -134 15 -9 27 -20 27 -24 0 -4 5 -8 11 -8 5 0 7 5 3 12
-5 8 -2 9 10 5 14 -6 15 -3 6 14 -6 11 -14 17 -18 15 -5 -3 -14 0 -22 6 -12 8
-12 9 3 4 26 -8 21 5 -15 39 -58 54 -102 105 -96 111 3 3 26 -14 51 -38 25
-24 61 -56 81 -72 20 -16 44 -43 53 -60 9 -17 19 -33 23 -36 4 -3 37 -63 75
-135 47 -90 70 -145 74 -180 l6 -50 116 -3 c64 -1 127 2 141 7 23 9 25 16 19
80 -1 11 -26 13 -128 10 -79 -3 -130 0 -133 6 -3 5 2 10 10 11 39 3 45 4 34
12 -6 4 -14 19 -17 34 -6 23 -4 25 15 20 17 -4 20 -2 15 11 -4 11 -2 14 9 10
18 -7 18 -12 -3 -35 -12 -14 -13 -18 -3 -18 8 0 37 24 65 53 28 30 63 62 78
71 15 10 27 25 27 33 0 19 101 134 112 127 4 -3 8 2 8 10 0 9 4 16 10 16 16 0
99 64 99 78 1 6 11 12 24 12 21 0 23 -4 19 -37 -4 -33 -3 -36 11 -25 8 7 27
14 42 16 29 3 90 56 100 86 5 16 10 18 33 8 43 -17 72 -10 113 27 22 19 46 35
53 35 8 0 17 4 21 10 7 12 -55 44 -169 85 -125 45 -194 59 -250 51 -42 -7 -46
-10 -45 -34 1 -15 -6 -40 -15 -57 -11 -21 -16 -25 -16 -12 0 10 -4 15 -10 12
-14 -9 -12 -42 3 -48 10 -4 10 -6 0 -6 -7 -1 -13 -9 -13 -19 0 -11 -9 -27 -20
-37 -11 -10 -20 -22 -20 -27 0 -5 -8 -17 -18 -28 -10 -11 -40 -59 -67 -106
-28 -48 -58 -101 -68 -118 -28 -50 -87 -117 -98 -111 -16 10 -10 40 11 53 11
7 20 21 20 32 0 11 5 20 11 20 6 0 9 7 5 15 -3 8 -1 15 4 15 6 0 10 9 10 19 0
11 10 32 23 48 13 15 41 57 62 93 21 36 48 76 59 90 37 44 58 90 59 133 2 37
6 44 35 58 45 21 98 89 139 179 19 41 38 84 43 95 52 114 75 258 49 307 -6 11
-8 22 -5 25 12 13 50 -35 85 -106 39 -80 63 -98 154 -122 34 -8 65 -27 103
-61 61 -57 84 -113 84 -208 0 -32 11 -156 24 -276 37 -328 49 -543 31 -561
-13 -12 -13 -17 1 -38 22 -33 15 -81 -11 -78 -150 14 -275 8 -282 -13 -2 -6 2
-11 9 -12 7 -1 45 -6 83 -12 39 -5 96 -7 127 -3 56 5 57 5 64 -23 4 -16 7 -56
6 -89 -4 -152 -12 -451 -13 -455 0 -3 -2 -152 -2 -333 l-2 -327 458 0 c413 0
492 4 445 23 -9 4 -7 6 3 6 9 1 29 12 45 26 15 13 30 22 32 20 3 -2 10 2 18 9
7 8 29 17 49 20 35 7 143 64 178 95 27 23 79 102 72 109 -3 4 -15 0 -27 -7
-11 -7 -49 -23 -83 -36 -61 -23 -62 -24 -93 -5 -17 11 -34 15 -37 10 -14 -23
-104 34 -105 68 0 6 -4 12 -10 12 -5 0 -10 9 -10 19 0 11 -5 21 -12 23 -6 2
-12 14 -13 27 -1 12 3 20 9 18 16 -6 56 11 56 23 0 6 -4 9 -10 5 -5 -3 -29 4
-54 16 -31 14 -43 25 -39 35 4 12 0 14 -20 9 -29 -8 -44 9 -27 30 7 8 10 24 7
35 -3 13 0 20 9 20 8 0 14 7 14 16 0 10 -6 14 -15 10 -8 -3 -15 -1 -15 4 0 6
6 10 13 10 8 0 14 12 14 30 0 18 -6 30 -14 30 -9 0 -13 15 -13 48 0 34 -5 52
-19 64 -11 9 -21 14 -23 12 -3 -2 -34 -7 -69 -10 -123 -13 -256 2 -251 26 2 8
8 16 13 18 5 2 9 12 9 23 0 17 11 24 34 20 16 -3 36 22 31 39 -8 25 13 62 73
126 12 14 22 33 22 42 0 19 34 -31 44 -64 3 -10 4 -6 2 10 -4 30 9 50 32 52
41 3 41 3 31 36 -11 38 -7 43 20 28 17 -8 21 -8 21 4 0 8 -6 16 -12 19 -10 3
-10 9 -1 25 15 24 6 63 -8 40 -7 -11 -9 -11 -9 1 0 8 -7 19 -14 25 -8 6 -18
23 -22 39 -5 22 -3 27 12 27 15 0 16 2 5 9 -11 7 -12 23 -6 78 5 37 10 84 11
103 1 19 4 42 7 50 3 8 15 49 28 90 12 41 31 90 41 108 10 18 16 37 13 42 -3
5 -2 27 1 50 5 29 11 40 20 36 8 -3 14 -1 14 3 0 5 -6 11 -12 13 -8 3 -3 14
15 30 19 18 24 28 15 31 -7 3 0 4 16 3 23 -1 31 -8 44 -41 9 -22 28 -60 44
-85 15 -25 39 -69 53 -97 15 -29 40 -67 58 -84 l31 -31 -22 -17 c-21 -15 -21
-18 -6 -46 8 -16 13 -41 11 -55 -3 -14 -1 -34 3 -45 10 -27 -6 -55 -31 -55
-25 0 -77 -41 -72 -56 2 -6 -6 -19 -17 -29 -24 -22 -27 -47 -4 -38 14 5 15 3
5 -14 -15 -28 15 -40 40 -17 18 16 19 16 19 -6 0 -17 4 -21 18 -15 9 4 29 10
43 12 24 4 25 3 21 -27 l-5 -32 44 7 c40 6 42 6 24 -8 -10 -8 -25 -13 -32 -10
-7 3 -13 2 -13 -2 0 -12 25 -30 43 -31 69 -3 69 -3 54 -19 -12 -12 -13 -20 -4
-39 6 -13 17 -21 24 -19 7 3 13 -1 13 -9 0 -13 43 -58 55 -58 3 0 23 -8 45
-17 30 -13 40 -24 40 -40 0 -16 9 -27 33 -36 17 -8 38 -21 46 -30 12 -15 10
-17 -18 -17 -19 0 -34 -6 -37 -15 -8 -20 35 -65 62 -65 12 0 27 -7 34 -15 10
-13 9 -15 -10 -15 -19 0 -21 -4 -16 -26 5 -19 -1 -34 -24 -63 -41 -52 -44 -85
-8 -89 27 -3 62 -32 39 -32 -6 0 -11 -4 -11 -10 0 -5 18 -10 40 -10 29 0 40
-4 40 -15 0 -8 -3 -15 -7 -15 -5 -1 -19 -10 -32 -21 -20 -16 -22 -22 -11 -29
11 -7 11 -11 1 -23 -23 -28 5 -26 66 6 61 30 62 31 82 13 27 -24 26 -28 -5
-65 -38 -46 -48 -88 -23 -109 25 -22 24 -39 -2 -38 -16 1 -23 -6 -24 -24 -1
-14 -8 -41 -15 -60 -7 -19 -17 -46 -22 -61 -9 -27 -42 -65 -77 -89 -11 -8 -21
-18 -21 -22 0 -4 151 -8 335 -8 l335 0 0 1311 0 1312 -50 -6 c-27 -3 -90 -22
-138 -42 -98 -39 -131 -43 -302 -30 -82 6 -124 15 -190 41 -76 29 -95 33 -175
31 -76 -2 -100 -7 -153 -31 -70 -32 -80 -45 -84 -105 -2 -23 -9 -43 -17 -46
-7 -3 -11 -12 -8 -19 4 -11 -7 -17 -40 -24 -48 -11 -80 -5 -148 27 -22 10 -84
33 -138 50 -150 48 -219 43 -383 -28 -93 -40 -275 -73 -288 -52 -4 6 -6 304
-4 663 5 1124 4 1203 -10 1221 -16 19 -96 31 -184 28 -77 -3 -87 1 -181 81
-70 58 -216 138 -347 191 -121 48 -271 70 -315 45z m-87 -565 c-2 -19 -9 -27
-25 -28 -33 -2 -38 25 -8 52 14 13 26 29 26 36 1 7 4 2 6 -10 2 -13 3 -35 1
-50z m92 -23 c0 -12 -26 -19 -39 -10 -8 5 -11 16 -6 29 6 21 8 22 26 5 10 -9
19 -20 19 -24z m83 -395 c13 -87 14 -100 5 -117 -10 -22 -72 -42 -105 -33 -16
4 -31 1 -42 -9 -25 -23 -66 -35 -82 -25 -20 14 24 49 62 49 16 0 29 4 29 9 0
4 13 25 29 45 17 21 37 60 46 87 22 67 47 64 58 -6z m-649 6 c4 -5 1 -33 -5
-62 -11 -48 -13 -51 -25 -34 -17 22 -18 59 -4 86 11 20 25 25 34 10z m171
-101 c3 -5 1 -10 -4 -10 -6 0 -11 5 -11 10 0 6 2 10 4 10 3 0 8 -4 11 -10z
m245 -260 c0 -5 -15 -10 -32 -10 -25 0 -29 3 -18 10 20 13 50 13 50 0z m-2133
-730 c7 -19 12 -49 12 -66 1 -17 6 -45 12 -63 10 -28 8 -36 -17 -74 -16 -23
-28 -46 -27 -52 1 -5 -18 -22 -42 -37 -34 -21 -45 -33 -45 -52 0 -28 -26 -102
-44 -125 -6 -8 -10 -22 -8 -31 1 -9 -4 -23 -13 -30 -16 -13 -18 -10 -15 33 1
15 -2 27 -7 27 -5 0 -7 15 -5 34 3 27 0 34 -16 38 -11 3 -28 18 -38 32 -15 24
-16 37 -6 117 11 92 28 130 79 174 12 11 36 41 52 67 29 46 32 48 73 45 39 -3
44 -6 55 -37z m3748 -300 c15 -12 118 -50 136 -50 8 0 25 -9 37 -20 12 -11 24
-20 28 -20 9 0 64 -60 64 -71 0 -4 6 -12 14 -16 7 -4 16 -18 20 -29 8 -27 -14
-37 -49 -24 -14 5 -25 7 -25 4 0 -3 -7 1 -15 10 -9 8 -21 13 -29 10 -7 -3 -19
2 -26 11 -20 25 -28 1 -17 -53 13 -67 18 -262 6 -283 -5 -10 -14 -41 -19 -69
-5 -29 -16 -66 -24 -83 -7 -18 -22 -52 -32 -77 -10 -25 -27 -53 -37 -62 -10
-9 -18 -19 -18 -22 2 -19 0 -26 -9 -26 -5 0 -7 7 -4 15 10 25 -5 17 -20 -12
-14 -26 -15 -27 -16 -5 0 24 -20 32 -20 8 0 -8 -4 -17 -9 -20 -5 -4 -10 57
-10 142 -2 168 -24 447 -46 572 -21 121 -20 155 8 175 22 16 89 13 112 -5z
m-3262 -184 c-3 -9 -17 -10 -68 -7 -8 1 -15 6 -15 12 0 6 17 9 43 7 23 -2 41
-7 40 -12z m3605 -69 c-8 -15 -12 -17 -18 -6 -11 16 -5 26 14 26 12 0 13 -5 4
-20z m-3340 -17 c3 -33 -12 -55 -32 -47 -11 4 -16 19 -16 42 0 32 3 36 23 33
15 -2 23 -11 25 -28z m-932 -22 c-1 -19 -7 -33 -16 -35 -12 -4 -12 -2 -2 5 9
6 11 18 6 35 -3 15 -2 27 3 27 6 0 10 -14 9 -32z m79 -38 c4 -6 -3 -38 -14
-73 -11 -34 -20 -79 -19 -101 0 -52 -24 -156 -37 -156 -5 0 -11 -13 -12 -30
-4 -68 -6 -81 -15 -86 -5 -3 -19 3 -31 14 -12 11 -31 22 -42 24 -38 7 -41 57
-7 118 27 47 31 59 22 65 -15 9 -9 143 7 156 7 7 13 18 13 25 0 17 40 19 41 2
1 -7 0 -28 -1 -45 -1 -18 1 -33 5 -33 16 0 44 48 45 76 0 41 29 70 45 44z
m1772 -75 c0 -8 -4 -12 -9 -9 -4 3 -8 9 -8 15 0 5 4 9 8 9 5 0 9 -7 9 -15z
m-1807 -406 c0 -5 -4 -9 -10 -9 -5 0 -10 7 -10 16 0 8 5 12 10 9 6 -3 10 -10
10 -16z m4520 -9 c0 -5 -5 -10 -11 -10 -5 0 -7 5 -4 10 3 6 8 10 11 10 2 0 4
-4 4 -10z m-688 -92 c-6 -7 -12 -26 -15 -43 -3 -24 -4 -22 -6 13 -1 33 3 42
15 42 12 0 14 -3 6 -12z m648 -38 c0 -5 -4 -10 -10 -10 -5 0 -10 5 -10 10 0 6
5 10 10 10 6 0 10 -4 10 -10z m-654 -190 c-2 -44 0 -67 6 -64 6 4 6 -2 -1 -13
-6 -11 -8 -23 -5 -26 3 -3 0 -8 -6 -12 -9 -5 -10 17 -7 86 6 104 5 99 12 99 2
0 3 -31 1 -70z m91 -122 c-3 -8 -6 -5 -6 6 -1 11 2 17 5 13 3 -3 4 -12 1 -19z
m-94 -28 c-3 -11 -7 -20 -9 -20 -2 0 -4 9 -4 20 0 11 4 20 9 20 5 0 7 -9 4
-20z m-6 -97 c-3 -10 -5 -2 -5 17 0 19 2 27 5 18 2 -10 2 -26 0 -35z m-10 -95
c-2 -13 -4 -3 -4 22 0 25 2 35 4 23 2 -13 2 -33 0 -45z m0 -60 c-3 -7 -5 -2
-5 12 0 14 2 19 5 13 2 -7 2 -19 0 -25z m-6 -75 c-9 -15 -10 -13 -11 13 0 17
3 34 8 38 11 12 14 -32 3 -51z m3 -55 c-3 -4 0 -16 6 -28 5 -11 15 -30 21 -42
9 -18 8 -24 -6 -34 -16 -12 -16 -14 -2 -20 23 -8 31 -58 16 -98 -10 -29 -10
-38 1 -51 13 -15 11 -17 -10 -13 -16 2 -27 12 -31 28 -4 14 -8 23 -9 20 -7
-21 -7 -45 0 -64 5 -11 9 -15 9 -8 1 6 8 12 16 12 17 0 19 -18 5 -40 -6 -9 -5
-17 2 -21 6 -4 4 -14 -8 -27 -10 -12 -21 -19 -26 -16 -5 3 -4 12 3 20 10 12 9
13 -5 8 -10 -4 -16 -1 -17 7 -5 72 22 403 32 388 4 -7 6 -16 3 -21z"/>
<path d="M4020 424 c0 -8 5 -12 10 -9 6 4 8 11 5 16 -9 14 -15 11 -15 -7z"/>
<path d="M10 4266 c0 -9 30 -14 35 -6 4 6 -3 10 -14 10 -12 0 -21 -2 -21 -4z"/>
<path d="M740 4251 c0 -5 7 -12 16 -15 24 -9 28 -7 14 9 -14 17 -30 20 -30 6z"/>
<path d="M1068 1663 c6 -2 12 -9 12 -14 0 -6 -8 -5 -20 1 -14 8 -20 8 -20 0 0
-7 -7 -7 -21 1 -20 10 -21 9 -17 -9 4 -13 0 -23 -9 -26 -9 -4 -13 -13 -9 -22
3 -8 2 -12 -4 -9 -6 3 -10 -1 -10 -9 0 -9 -6 -13 -13 -10 -9 3 -13 -3 -12 -18
1 -13 -2 -26 -8 -29 -5 -4 -4 -16 4 -30 7 -13 13 -27 14 -30 0 -10 28 -34 95
-83 101 -73 179 -165 312 -366 82 -125 109 -200 48 -135 -13 14 -29 25 -36 25
-12 0 -23 23 -28 58 -2 9 -8 18 -15 20 -10 3 -10 0 -2 -17 7 -11 9 -21 6 -21
-13 0 34 -60 107 -138 54 -57 78 -91 78 -108 0 -13 15 -55 34 -92 19 -37 39
-87 46 -110 6 -24 13 -51 16 -60 3 -9 -21 37 -53 103 -78 158 -110 208 -129
201 -8 -3 -13 -2 -10 3 3 4 -17 26 -44 47 -27 21 -49 43 -50 47 0 13 -58 65
-65 59 -3 -3 -5 0 -5 6 0 13 -58 72 -71 72 -5 0 0 -10 11 -22 19 -20 19 -24 5
-34 -12 -9 -13 -13 -3 -16 10 -4 11 -8 0 -20 -10 -12 -9 -18 3 -28 8 -7 13
-16 10 -20 -3 -5 11 -28 30 -52 19 -23 51 -64 71 -90 19 -26 51 -57 69 -68 48
-30 83 -74 95 -122 6 -22 29 -76 51 -121 47 -97 67 -159 78 -248 10 -73 4
-130 -10 -107 -7 10 -9 9 -9 -4 0 -16 11 -18 86 -18 l86 0 -7 173 c-4 94 -9
224 -11 287 -3 63 -5 122 -5 130 -1 66 -22 115 -25 57 -1 -12 -2 -33 -3 -47
l-2 -25 -10 23 c-11 28 -29 20 -24 -10 8 -37 -6 -40 -32 -6 -23 30 -24 31 -19
8 17 -66 30 -106 39 -118 7 -8 7 -16 0 -23 -8 -8 -13 -1 -18 22 -4 18 -11 40
-16 49 -9 17 -67 133 -111 222 -15 31 -32 78 -38 104 -6 26 -19 72 -30 103
-10 31 -30 101 -44 156 -48 186 -83 297 -105 325 -11 16 -21 32 -21 35 0 4
-13 25 -29 48 -15 23 -40 66 -55 95 -16 31 -31 50 -37 46 -8 -4 -7 -9 2 -15
10 -6 10 -9 2 -9 -7 0 -10 -7 -7 -15 13 -32 -32 -15 -50 20 -11 19 -26 35 -35
34 -10 0 -12 -2 -3 -6z m625 -1303 c4 -21 3 -29 -2 -20 -4 8 -11 31 -14 50 -4
21 -3 29 2 20 4 -8 11 -31 14 -50z"/>
<path d="M1111 1648 c16 -32 17 -32 15 -4 0 14 -7 26 -14 26 -10 0 -10 -5 -1
-22z"/>
<path d="M1256 1617 c3 -10 9 -15 12 -12 3 3 0 11 -7 18 -10 9 -11 8 -5 -6z"/>
<path d="M1281 1534 c0 -11 3 -14 6 -6 3 7 2 16 -1 19 -3 4 -6 -2 -5 -13z"/>
<path d="M855 1520 c3 -5 8 -10 11 -10 2 0 4 5 4 10 0 6 -5 10 -11 10 -5 0 -7
-4 -4 -10z"/>
<path d="M2710 1450 c-12 -7 -8 -10 15 -10 17 0 37 5 45 10 12 7 8 10 -15 10
-16 0 -37 -5 -45 -10z"/>
<path d="M3459 1417 c-14 -12 -32 -30 -39 -40 -11 -15 -11 -18 1 -15 8 2 13
-4 13 -14 -1 -10 3 -15 8 -12 5 4 8 14 5 24 -3 12 0 17 8 13 13 -4 39 30 30
39 -2 2 8 4 22 3 14 0 28 6 30 13 8 21 -50 14 -78 -11z"/>
<path d="M3600 1389 c0 -5 5 -7 10 -4 6 3 10 8 10 11 0 2 -4 4 -10 4 -5 0 -10
-5 -10 -11z"/>
<path d="M559 1117 c-31 -43 -42 -97 -36 -178 4 -48 1 -105 -7 -151 -8 -40
-17 -136 -20 -213 -5 -96 -11 -147 -21 -162 -8 -12 -15 -29 -15 -38 0 -9 -8
-19 -17 -22 -10 -4 -23 -14 -30 -22 -11 -14 -12 -14 -13 2 0 9 -7 17 -16 17
-9 0 -18 9 -21 20 -3 11 -9 20 -14 20 -5 0 -9 12 -9 27 0 40 -31 146 -46 159
-8 6 -14 15 -14 20 0 5 -22 23 -47 39 -26 17 -53 40 -59 52 -6 13 -20 31 -30
40 -26 23 -94 118 -94 130 0 11 -33 43 -43 43 -4 0 -7 -196 -7 -435 l0 -435
30 0 c20 0 30 -5 30 -15 0 -13 39 -15 293 -15 l293 0 3 52 c1 28 4 54 6 57 19
32 27 460 8 483 -16 19 -42 108 -45 149 -2 36 17 95 37 114 5 6 28 24 50 40
49 37 55 44 55 73 0 17 -7 24 -32 29 -38 8 -128 94 -128 124 0 25 -21 24 -41
-4z"/>
<path d="M1555 1093 c10 -79 12 -87 24 -118 7 -16 28 -51 47 -77 19 -27 38
-65 43 -86 5 -20 9 -29 10 -19 1 19 18 24 18 5 0 -20 23 -98 29 -98 5 0 0 28
-18 98 -6 23 -14 42 -18 42 -3 0 -5 33 -3 73 3 39 5 81 5 92 1 32 -13 65 -28
65 -8 0 -14 5 -14 11 0 5 -4 7 -10 4 -5 -3 -10 -19 -10 -35 0 -16 -5 -32 -10
-35 -6 -4 -7 -12 -4 -18 4 -7 -1 -5 -10 4 -9 8 -22 43 -28 77 -14 73 -33 85
-23 15z"/>
<path d="M2779 1046 c-2 -2 -49 -7 -104 -10 -55 -4 -101 -9 -104 -12 -15 -14
23 -16 117 -6 59 7 123 12 141 12 19 0 30 4 26 10 -6 9 -67 14 -76 6z"/>
<path d="M4322 970 c0 -14 2 -19 5 -12 2 6 2 18 0 25 -3 6 -5 1 -5 -13z"/>
<path d="M4635 470 c-17 -7 -15 -9 12 -9 17 -1 35 4 38 9 7 12 -22 12 -50 0z"/>
</g>
</svg>
